<svg width="333" height="204" viewBox="0 0 333 204" fill="none" xmlns="http://www.w3.org/2000/svg">
<path d="M104.7 1.4C103 2.7 104.4 5.9 124.6 48.9C139.8 81.1 146.8 95 147.9 95C152.5 94.9 152 93.5 130.1 47C118 21.5 107.8 0.499999 107.4 0.299999C106.9 0.199999 105.7 0.699999 104.7 1.4Z" fill="#FF000F"/>
<path d="M126.9 17.2C128.5 20.1 135.7 33.5 143 47C150.2 60.5 156.5 71.9 157 72.4C157.6 73 158.2 72.7 158.6 71.7C159 70.7 153.5 59.5 143.7 41.3C131.6 18.9 127.7 12.4 126 12.2C124 11.9 124 12.1 126.9 17.2Z" fill="#464646"/>
<path d="M132.1 12.7C132.3 13.2 138.8 25.4 146.5 39.8C159.1 63.3 162 68.1 162 65.1C162 63.2 134.2 12.6 133 12.2C132.3 11.9 131.9 12.2 132.1 12.7Z" fill="#464646"/>
<path d="M120.3 17.2C121.6 19.6 129.4 33.9 137.5 49C154.3 80.1 152.8 77.5 153.6 76.7C154.6 75.7 120.7 13 119.2 13C118.2 13 118.5 14.2 120.3 17.2Z" fill="#464646"/>
<path d="M149.3 37.4C156.6 50.9 162.8 62 163.1 62C163.5 62 164 60.9 164.2 59.5C164.6 57.8 161.6 51.3 153.2 35.8C146.9 24.1 141.7 14.4 141.6 14.3C141.6 14.2 140.3 13.9 138.8 13.5C136.3 12.8 136.9 14.4 149.3 37.4Z" fill="#464646"/>
<path d="M116 14.3C116 17.3 149.2 79.3 150.6 78.8C151.8 78.4 153.4 81.8 134.5 46.5C118.9 17.6 116 12.5 116 14.3Z" fill="#464646"/>
<path d="M147.7 23.2C149.9 27.2 154.5 35.8 158 42.3C162.9 51.3 164.6 53.7 165.3 52.5C166.8 49.8 164.5 42.7 158.6 31.6C154.4 23.9 151.9 20.3 149.2 18.5C147.2 17.1 145.1 16 144.7 16C144.2 16 145.6 19.3 147.7 23.2Z" fill="#464646"/>
<path d="M101.7 21.6C101.3 22 102.7 25.5 104.9 29.4C107 33.3 114.7 47.5 122 61C129.2 74.5 135.4 85.7 135.6 85.9C135.8 86.1 136.3 86.1 136.6 85.8C136.9 85.4 130.1 72 121.4 55.8C103.1 21.7 102.6 20.7 101.7 21.6Z" fill="#464646"/>
<path d="M99 25C99 27.4 131.5 87 132.8 87C133.8 87 133.4 85.5 131.3 81.7C129.6 78.9 122.1 64.9 114.6 50.7C101.7 26.7 99 22.2 99 25Z" fill="#464646"/>
<path d="M95.5 30C94.7 31.6 94 33.4 94 34.1C94 34.8 100.2 46.9 107.8 61.1L121.5 86.9L125.8 87H130.2L127.3 81.7C125.6 78.9 118.3 65.4 111 51.7C103.8 38.1 97.6 27 97.4 27C97.2 27 96.4 28.3 95.5 30Z" fill="#464646"/>
<path d="M90.7 42.2C90.3 43.5 110.4 81.8 112.8 84.2C115.9 87.3 113.8 82.8 103 62.7C96.5 50.8 91 41.5 90.7 42.2Z" fill="#464646"/>
<path d="M90 52.5C90.1 55.1 103.2 79.2 104.9 79.8C106.1 80.2 95 57.9 91.3 52.5C90 50.6 90 50.6 90 52.5Z" fill="#464646"/>
<path d="M139 63.3C139 64.7 147.5 81 148.2 81C148.7 81 146.9 77.1 144.3 72.2C139.3 62.8 139 62.3 139 63.3Z" fill="#464646"/>
<path d="M9.6 108C8.1 108.5 5.9 109.7 4.8 110.7C0.2 114.8 0 116.6 0 159.5V200H7H14V169.4C13.9 152.5 14.1 138.6 14.3 138.4C14.5 138.2 18.2 147.4 22.5 158.8C36.2 195.2 38.2 200.2 39 199.3C39.4 198.9 45.1 184 51.6 166.3L63.5 134L63.8 167L64 200H77.5H91V158.5C91 112.7 91 112.6 84.9 109.4C79.7 106.8 72 106.5 66.9 108.7C61.5 111.1 59.4 114.8 52 134.5C49.1 142.2 46.4 148.9 46 149.3C45.6 149.8 42.2 142.5 38.5 133C34.8 123.6 30.6 114.5 29.2 112.8C24.8 107.6 17.3 105.7 9.6 108Z" fill="#3D44FF"/>
<path d="M178.3 108.5C176.6 109.2 174.3 111.3 173.3 113.2C171.7 116.2 171.5 120.1 171.2 158.3L170.9 200H177.5H184V171C184 155 184.3 142 184.8 142C185.2 142.1 192.3 153.8 200.5 168.2C208.8 182.5 217.2 196.2 219.3 198.6C223.5 203.4 227.6 204.8 231.9 203C237.4 200.8 237.5 200.2 237.8 153.2L238.1 110H231.1H224L223.8 132.5L223.5 154.9L213 136.7C199 112.5 193.5 106.9 183.6 107C182.5 107.1 180.1 107.7 178.3 108.5Z" fill="#3D44FF"/>
<path d="M117 155V200H131H145V155V110H131H117V155Z" fill="#3D44FF"/>
<path d="M253.5 111.2C253.7 111.9 258.7 129.8 264.5 150.9C270.7 173.5 276.1 191.3 277.7 194.2C281.3 200.9 285.8 203.5 293.5 203.5C300.9 203.4 305.2 201.3 308.4 196.1C311.6 191.1 313.2 185.6 323.8 144.2L332.6 110H325.4H318.3L310 143.2C305.4 161.5 301.4 177.1 301 177.8C300.3 179.3 298.2 171.8 288.4 132.7L282.7 110H267.9C256.5 110 253.2 110.3 253.5 111.2Z" fill="#3D44FF"/>
</svg>
